# xmcd
#
# Track frame offsets:
#	150
#	26269
#	40816
#	63247
#	80351
#	95644
#	113474
#	134995
#	154228
#	173587
#	192940
#	210288
#	227719
#	247359
#	260220
#	282571
#
# Disc length: 4511 seconds
#
# Revision: 2
# Processed by: cddbd v1.5.2PL0 Copyright (c) Steve Scherf et al.
# Submitted via: EasyCDDAExtractor 11.0.3.1
#
DISCID=e4119d10
DTITLE=Various Artist - East Coast Blues and Roots Festival 2003 - CD 1
DYEAR=2003
DGENRE=Blues-Various
TTITLE0=Morcheeba - The Sea
TTITLE1=Kasey Chambers - Barricades and Brickwalls
TTITLE2=Ben Harper - Gold To Me
TTITLE3=Michael Franti and Spearhead - Sometimes
TTITLE4=Blind Boys Of Alabama - People Get Ready
TTITLE5=Jimmy Vaughan - Boom Bapa Boom
TTITLE6=Tuck and Patti - Time After Time
TTITLE7=Michelle Shocked - What Can I Say?
TTITLE8=Ozomatli - Embrace The Chaos
TTITLE9=Love and Special Sauce - Blues Music
TTITLE10=Angelique Kid Jo - Voodoo Child
TTITLE11=Xavier Rudd - The Wind Cries Mary
TTITLE12=Grant Lee Phillips - Sadness Soot
TTITLE13=The Beautiful Girls - Goodtimes
TTITLE14=Tommy Emmanuel - The Journey
TTITLE15=Robert Randolph and The Family Band - Ted's Jam
EXTD=
EXTT0=
EXTT1=
EXTT2=
EXTT3=
EXTT4=
EXTT5=
EXTT6=
EXTT7=
EXTT8=
EXTT9=
EXTT10=
EXTT11=
EXTT12=
EXTT13=
EXTT14=
EXTT15=
PLAYORDER=
